<mxfile host="app.diagrams.net" agent="Mozilla/5.0 (Windows NT 10.0; Win64; x64) AppleWebKit/537.36 (KHTML, like Gecko) Chrome/130.0.0.0 Safari/537.36" version="26.0.6">
  <diagram name="Page-1" id="taUIUAZM9T905PctPo04">
    <mxGraphModel dx="2033" dy="2209" grid="1" gridSize="10" guides="1" tooltips="1" connect="1" arrows="1" fold="1" page="1" pageScale="1" pageWidth="850" pageHeight="1100" math="0" shadow="0">
      <root>
        <mxCell id="0" />
        <mxCell id="1" parent="0" />
        <mxCell id="0FDRRa2D_WhrvJ5urZ2m-126" style="edgeStyle=orthogonalEdgeStyle;rounded=0;orthogonalLoop=1;jettySize=auto;html=1;" parent="1" source="0FDRRa2D_WhrvJ5urZ2m-48" edge="1">
          <mxGeometry relative="1" as="geometry">
            <mxPoint x="560" y="550" as="targetPoint" />
          </mxGeometry>
        </mxCell>
        <mxCell id="0FDRRa2D_WhrvJ5urZ2m-48" value="BookMyManager" style="swimlane;fontStyle=1;align=center;verticalAlign=top;childLayout=stackLayout;horizontal=1;startSize=26;horizontalStack=0;resizeParent=1;resizeParentMax=0;resizeLast=0;collapsible=1;marginBottom=0;whiteSpace=wrap;html=1;" parent="1" vertex="1">
          <mxGeometry x="600" y="310" width="160" height="154" as="geometry" />
        </mxCell>
        <mxCell id="0FDRRa2D_WhrvJ5urZ2m-49" value="+ city_manager&lt;div&gt;+ ticket_manager&lt;/div&gt;&lt;div&gt;+ booking_manager&lt;/div&gt;&lt;div&gt;+ show_manager&lt;/div&gt;&lt;div&gt;+ Movie_manager&lt;/div&gt;&lt;div&gt;+ theatre_manager&lt;/div&gt;" style="text;strokeColor=none;fillColor=none;align=left;verticalAlign=top;spacingLeft=4;spacingRight=4;overflow=hidden;rotatable=0;points=[[0,0.5],[1,0.5]];portConstraint=eastwest;whiteSpace=wrap;html=1;" parent="0FDRRa2D_WhrvJ5urZ2m-48" vertex="1">
          <mxGeometry y="26" width="160" height="94" as="geometry" />
        </mxCell>
        <mxCell id="0FDRRa2D_WhrvJ5urZ2m-50" value="" style="line;strokeWidth=1;fillColor=none;align=left;verticalAlign=middle;spacingTop=-1;spacingLeft=3;spacingRight=3;rotatable=0;labelPosition=right;points=[];portConstraint=eastwest;strokeColor=inherit;" parent="0FDRRa2D_WhrvJ5urZ2m-48" vertex="1">
          <mxGeometry y="120" width="160" height="8" as="geometry" />
        </mxCell>
        <mxCell id="0FDRRa2D_WhrvJ5urZ2m-51" value="+ book_ticket()&lt;div&gt;&lt;br&gt;&lt;/div&gt;&lt;div&gt;&lt;br&gt;&lt;/div&gt;" style="text;strokeColor=none;fillColor=none;align=left;verticalAlign=top;spacingLeft=4;spacingRight=4;overflow=hidden;rotatable=0;points=[[0,0.5],[1,0.5]];portConstraint=eastwest;whiteSpace=wrap;html=1;" parent="0FDRRa2D_WhrvJ5urZ2m-48" vertex="1">
          <mxGeometry y="128" width="160" height="26" as="geometry" />
        </mxCell>
        <mxCell id="0FDRRa2D_WhrvJ5urZ2m-52" value="TheatreManager" style="swimlane;fontStyle=1;align=center;verticalAlign=top;childLayout=stackLayout;horizontal=1;startSize=26;horizontalStack=0;resizeParent=1;resizeParentMax=0;resizeLast=0;collapsible=1;marginBottom=0;whiteSpace=wrap;html=1;" parent="1" vertex="1">
          <mxGeometry x="925" y="296" width="190" height="110" as="geometry" />
        </mxCell>
        <mxCell id="0FDRRa2D_WhrvJ5urZ2m-53" value="+ theatre_id_to_theatre_map" style="text;strokeColor=none;fillColor=none;align=left;verticalAlign=top;spacingLeft=4;spacingRight=4;overflow=hidden;rotatable=0;points=[[0,0.5],[1,0.5]];portConstraint=eastwest;whiteSpace=wrap;html=1;" parent="0FDRRa2D_WhrvJ5urZ2m-52" vertex="1">
          <mxGeometry y="26" width="190" height="26" as="geometry" />
        </mxCell>
        <mxCell id="0FDRRa2D_WhrvJ5urZ2m-54" value="" style="line;strokeWidth=1;fillColor=none;align=left;verticalAlign=middle;spacingTop=-1;spacingLeft=3;spacingRight=3;rotatable=0;labelPosition=right;points=[];portConstraint=eastwest;strokeColor=inherit;" parent="0FDRRa2D_WhrvJ5urZ2m-52" vertex="1">
          <mxGeometry y="52" width="190" height="8" as="geometry" />
        </mxCell>
        <mxCell id="0FDRRa2D_WhrvJ5urZ2m-55" value="+ add_theatre()&lt;div&gt;+ remove_theatre&lt;/div&gt;" style="text;strokeColor=none;fillColor=none;align=left;verticalAlign=top;spacingLeft=4;spacingRight=4;overflow=hidden;rotatable=0;points=[[0,0.5],[1,0.5]];portConstraint=eastwest;whiteSpace=wrap;html=1;" parent="0FDRRa2D_WhrvJ5urZ2m-52" vertex="1">
          <mxGeometry y="60" width="190" height="50" as="geometry" />
        </mxCell>
        <mxCell id="0FDRRa2D_WhrvJ5urZ2m-56" value="Theatre" style="swimlane;fontStyle=1;align=center;verticalAlign=top;childLayout=stackLayout;horizontal=1;startSize=26;horizontalStack=0;resizeParent=1;resizeParentMax=0;resizeLast=0;collapsible=1;marginBottom=0;whiteSpace=wrap;html=1;" parent="1" vertex="1">
          <mxGeometry x="1210" y="270" width="180" height="120" as="geometry" />
        </mxCell>
        <mxCell id="0FDRRa2D_WhrvJ5urZ2m-57" value="+ screen_id_to_screenmap&lt;div&gt;+ city&lt;/div&gt;&lt;div&gt;&lt;br&gt;&lt;/div&gt;" style="text;strokeColor=none;fillColor=none;align=left;verticalAlign=top;spacingLeft=4;spacingRight=4;overflow=hidden;rotatable=0;points=[[0,0.5],[1,0.5]];portConstraint=eastwest;whiteSpace=wrap;html=1;" parent="0FDRRa2D_WhrvJ5urZ2m-56" vertex="1">
          <mxGeometry y="26" width="180" height="44" as="geometry" />
        </mxCell>
        <mxCell id="0FDRRa2D_WhrvJ5urZ2m-58" value="" style="line;strokeWidth=1;fillColor=none;align=left;verticalAlign=middle;spacingTop=-1;spacingLeft=3;spacingRight=3;rotatable=0;labelPosition=right;points=[];portConstraint=eastwest;strokeColor=inherit;" parent="0FDRRa2D_WhrvJ5urZ2m-56" vertex="1">
          <mxGeometry y="70" width="180" height="8" as="geometry" />
        </mxCell>
        <mxCell id="0FDRRa2D_WhrvJ5urZ2m-59" value="+ add_screen&lt;div&gt;+remove_screen&lt;/div&gt;" style="text;strokeColor=none;fillColor=none;align=left;verticalAlign=top;spacingLeft=4;spacingRight=4;overflow=hidden;rotatable=0;points=[[0,0.5],[1,0.5]];portConstraint=eastwest;whiteSpace=wrap;html=1;" parent="0FDRRa2D_WhrvJ5urZ2m-56" vertex="1">
          <mxGeometry y="78" width="180" height="42" as="geometry" />
        </mxCell>
        <mxCell id="0FDRRa2D_WhrvJ5urZ2m-60" value="ShowManager" style="swimlane;fontStyle=1;align=center;verticalAlign=top;childLayout=stackLayout;horizontal=1;startSize=26;horizontalStack=0;resizeParent=1;resizeParentMax=0;resizeLast=0;collapsible=1;marginBottom=0;whiteSpace=wrap;html=1;" parent="1" vertex="1">
          <mxGeometry x="830" y="138" width="160" height="100" as="geometry" />
        </mxCell>
        <mxCell id="0FDRRa2D_WhrvJ5urZ2m-61" value="+ show_id_to_show_map" style="text;strokeColor=none;fillColor=none;align=left;verticalAlign=top;spacingLeft=4;spacingRight=4;overflow=hidden;rotatable=0;points=[[0,0.5],[1,0.5]];portConstraint=eastwest;whiteSpace=wrap;html=1;" parent="0FDRRa2D_WhrvJ5urZ2m-60" vertex="1">
          <mxGeometry y="26" width="160" height="26" as="geometry" />
        </mxCell>
        <mxCell id="0FDRRa2D_WhrvJ5urZ2m-62" value="" style="line;strokeWidth=1;fillColor=none;align=left;verticalAlign=middle;spacingTop=-1;spacingLeft=3;spacingRight=3;rotatable=0;labelPosition=right;points=[];portConstraint=eastwest;strokeColor=inherit;" parent="0FDRRa2D_WhrvJ5urZ2m-60" vertex="1">
          <mxGeometry y="52" width="160" height="8" as="geometry" />
        </mxCell>
        <mxCell id="0FDRRa2D_WhrvJ5urZ2m-63" value="+ add_show&lt;div&gt;+ remove_show&lt;/div&gt;" style="text;strokeColor=none;fillColor=none;align=left;verticalAlign=top;spacingLeft=4;spacingRight=4;overflow=hidden;rotatable=0;points=[[0,0.5],[1,0.5]];portConstraint=eastwest;whiteSpace=wrap;html=1;" parent="0FDRRa2D_WhrvJ5urZ2m-60" vertex="1">
          <mxGeometry y="60" width="160" height="40" as="geometry" />
        </mxCell>
        <mxCell id="0FDRRa2D_WhrvJ5urZ2m-131" style="edgeStyle=orthogonalEdgeStyle;rounded=0;orthogonalLoop=1;jettySize=auto;html=1;entryX=0.5;entryY=0;entryDx=0;entryDy=0;" parent="1" source="0FDRRa2D_WhrvJ5urZ2m-71" target="0FDRRa2D_WhrvJ5urZ2m-127" edge="1">
          <mxGeometry relative="1" as="geometry" />
        </mxCell>
        <mxCell id="0FDRRa2D_WhrvJ5urZ2m-71" value="Screen" style="swimlane;fontStyle=1;align=center;verticalAlign=top;childLayout=stackLayout;horizontal=1;startSize=26;horizontalStack=0;resizeParent=1;resizeParentMax=0;resizeLast=0;collapsible=1;marginBottom=0;whiteSpace=wrap;html=1;" parent="1" vertex="1">
          <mxGeometry x="1450" y="230" width="160" height="138" as="geometry" />
        </mxCell>
        <mxCell id="0FDRRa2D_WhrvJ5urZ2m-72" value="+ screen_id&lt;div&gt;+ seat_id_to_seat_map&lt;/div&gt;" style="text;strokeColor=none;fillColor=none;align=left;verticalAlign=top;spacingLeft=4;spacingRight=4;overflow=hidden;rotatable=0;points=[[0,0.5],[1,0.5]];portConstraint=eastwest;whiteSpace=wrap;html=1;" parent="0FDRRa2D_WhrvJ5urZ2m-71" vertex="1">
          <mxGeometry y="26" width="160" height="54" as="geometry" />
        </mxCell>
        <mxCell id="0FDRRa2D_WhrvJ5urZ2m-73" value="" style="line;strokeWidth=1;fillColor=none;align=left;verticalAlign=middle;spacingTop=-1;spacingLeft=3;spacingRight=3;rotatable=0;labelPosition=right;points=[];portConstraint=eastwest;strokeColor=inherit;" parent="0FDRRa2D_WhrvJ5urZ2m-71" vertex="1">
          <mxGeometry y="80" width="160" height="8" as="geometry" />
        </mxCell>
        <mxCell id="0FDRRa2D_WhrvJ5urZ2m-74" value="+ add_seat()&lt;div&gt;+ remove_seat()&lt;/div&gt;" style="text;strokeColor=none;fillColor=none;align=left;verticalAlign=top;spacingLeft=4;spacingRight=4;overflow=hidden;rotatable=0;points=[[0,0.5],[1,0.5]];portConstraint=eastwest;whiteSpace=wrap;html=1;" parent="0FDRRa2D_WhrvJ5urZ2m-71" vertex="1">
          <mxGeometry y="88" width="160" height="50" as="geometry" />
        </mxCell>
        <mxCell id="0FDRRa2D_WhrvJ5urZ2m-83" value="Show" style="swimlane;fontStyle=1;align=center;verticalAlign=top;childLayout=stackLayout;horizontal=1;startSize=26;horizontalStack=0;resizeParent=1;resizeParentMax=0;resizeLast=0;collapsible=1;marginBottom=0;whiteSpace=wrap;html=1;" parent="1" vertex="1">
          <mxGeometry x="840" y="-100" width="160" height="154" as="geometry" />
        </mxCell>
        <mxCell id="0FDRRa2D_WhrvJ5urZ2m-84" value="+ theatre_id&lt;div&gt;+ screen_id&lt;/div&gt;&lt;div&gt;+ start_time&lt;/div&gt;&lt;div&gt;+ end_time&lt;/div&gt;&lt;div&gt;+ movie&lt;/div&gt;" style="text;strokeColor=none;fillColor=none;align=left;verticalAlign=top;spacingLeft=4;spacingRight=4;overflow=hidden;rotatable=0;points=[[0,0.5],[1,0.5]];portConstraint=eastwest;whiteSpace=wrap;html=1;" parent="0FDRRa2D_WhrvJ5urZ2m-83" vertex="1">
          <mxGeometry y="26" width="160" height="94" as="geometry" />
        </mxCell>
        <mxCell id="0FDRRa2D_WhrvJ5urZ2m-85" value="" style="line;strokeWidth=1;fillColor=none;align=left;verticalAlign=middle;spacingTop=-1;spacingLeft=3;spacingRight=3;rotatable=0;labelPosition=right;points=[];portConstraint=eastwest;strokeColor=inherit;" parent="0FDRRa2D_WhrvJ5urZ2m-83" vertex="1">
          <mxGeometry y="120" width="160" height="8" as="geometry" />
        </mxCell>
        <mxCell id="0FDRRa2D_WhrvJ5urZ2m-86" value="+ method(type): type" style="text;strokeColor=none;fillColor=none;align=left;verticalAlign=top;spacingLeft=4;spacingRight=4;overflow=hidden;rotatable=0;points=[[0,0.5],[1,0.5]];portConstraint=eastwest;whiteSpace=wrap;html=1;" parent="0FDRRa2D_WhrvJ5urZ2m-83" vertex="1">
          <mxGeometry y="128" width="160" height="26" as="geometry" />
        </mxCell>
        <mxCell id="0FDRRa2D_WhrvJ5urZ2m-87" value="TicketManager" style="swimlane;fontStyle=1;align=center;verticalAlign=top;childLayout=stackLayout;horizontal=1;startSize=26;horizontalStack=0;resizeParent=1;resizeParentMax=0;resizeLast=0;collapsible=1;marginBottom=0;whiteSpace=wrap;html=1;" parent="1" vertex="1">
          <mxGeometry x="600" y="-30" width="160" height="120" as="geometry" />
        </mxCell>
        <mxCell id="0FDRRa2D_WhrvJ5urZ2m-88" value="+ ticket_id_to_ticket_map" style="text;strokeColor=none;fillColor=none;align=left;verticalAlign=top;spacingLeft=4;spacingRight=4;overflow=hidden;rotatable=0;points=[[0,0.5],[1,0.5]];portConstraint=eastwest;whiteSpace=wrap;html=1;" parent="0FDRRa2D_WhrvJ5urZ2m-87" vertex="1">
          <mxGeometry y="26" width="160" height="26" as="geometry" />
        </mxCell>
        <mxCell id="0FDRRa2D_WhrvJ5urZ2m-89" value="" style="line;strokeWidth=1;fillColor=none;align=left;verticalAlign=middle;spacingTop=-1;spacingLeft=3;spacingRight=3;rotatable=0;labelPosition=right;points=[];portConstraint=eastwest;strokeColor=inherit;" parent="0FDRRa2D_WhrvJ5urZ2m-87" vertex="1">
          <mxGeometry y="52" width="160" height="8" as="geometry" />
        </mxCell>
        <mxCell id="0FDRRa2D_WhrvJ5urZ2m-90" value="+ add_ticket&lt;div&gt;+ remove_ticket&lt;/div&gt;&lt;div&gt;+ update_ticket_status&lt;/div&gt;" style="text;strokeColor=none;fillColor=none;align=left;verticalAlign=top;spacingLeft=4;spacingRight=4;overflow=hidden;rotatable=0;points=[[0,0.5],[1,0.5]];portConstraint=eastwest;whiteSpace=wrap;html=1;" parent="0FDRRa2D_WhrvJ5urZ2m-87" vertex="1">
          <mxGeometry y="60" width="160" height="60" as="geometry" />
        </mxCell>
        <mxCell id="0FDRRa2D_WhrvJ5urZ2m-91" value="Ticker" style="swimlane;fontStyle=1;align=center;verticalAlign=top;childLayout=stackLayout;horizontal=1;startSize=26;horizontalStack=0;resizeParent=1;resizeParentMax=0;resizeLast=0;collapsible=1;marginBottom=0;whiteSpace=wrap;html=1;" parent="1" vertex="1">
          <mxGeometry x="330" y="-10" width="160" height="154" as="geometry" />
        </mxCell>
        <mxCell id="0FDRRa2D_WhrvJ5urZ2m-92" value="+ ticket_id&lt;div&gt;+ show_id&lt;/div&gt;&lt;div&gt;+ theatre_id&lt;/div&gt;&lt;div&gt;+ seats: List[seat_ids]&lt;/div&gt;&lt;div&gt;+ screen_id&lt;/div&gt;&lt;div&gt;+ city&lt;/div&gt;" style="text;strokeColor=none;fillColor=none;align=left;verticalAlign=top;spacingLeft=4;spacingRight=4;overflow=hidden;rotatable=0;points=[[0,0.5],[1,0.5]];portConstraint=eastwest;whiteSpace=wrap;html=1;" parent="0FDRRa2D_WhrvJ5urZ2m-91" vertex="1">
          <mxGeometry y="26" width="160" height="94" as="geometry" />
        </mxCell>
        <mxCell id="0FDRRa2D_WhrvJ5urZ2m-93" value="" style="line;strokeWidth=1;fillColor=none;align=left;verticalAlign=middle;spacingTop=-1;spacingLeft=3;spacingRight=3;rotatable=0;labelPosition=right;points=[];portConstraint=eastwest;strokeColor=inherit;" parent="0FDRRa2D_WhrvJ5urZ2m-91" vertex="1">
          <mxGeometry y="120" width="160" height="8" as="geometry" />
        </mxCell>
        <mxCell id="0FDRRa2D_WhrvJ5urZ2m-94" value="+ method(type): type" style="text;strokeColor=none;fillColor=none;align=left;verticalAlign=top;spacingLeft=4;spacingRight=4;overflow=hidden;rotatable=0;points=[[0,0.5],[1,0.5]];portConstraint=eastwest;whiteSpace=wrap;html=1;" parent="0FDRRa2D_WhrvJ5urZ2m-91" vertex="1">
          <mxGeometry y="128" width="160" height="26" as="geometry" />
        </mxCell>
        <mxCell id="0FDRRa2D_WhrvJ5urZ2m-95" value="BookingManager" style="swimlane;fontStyle=1;align=center;verticalAlign=top;childLayout=stackLayout;horizontal=1;startSize=26;horizontalStack=0;resizeParent=1;resizeParentMax=0;resizeLast=0;collapsible=1;marginBottom=0;whiteSpace=wrap;html=1;" parent="1" vertex="1">
          <mxGeometry x="190" y="220" width="220" height="86" as="geometry" />
        </mxCell>
        <mxCell id="0FDRRa2D_WhrvJ5urZ2m-96" value="+ field: type" style="text;strokeColor=none;fillColor=none;align=left;verticalAlign=top;spacingLeft=4;spacingRight=4;overflow=hidden;rotatable=0;points=[[0,0.5],[1,0.5]];portConstraint=eastwest;whiteSpace=wrap;html=1;" parent="0FDRRa2D_WhrvJ5urZ2m-95" vertex="1">
          <mxGeometry y="26" width="220" height="26" as="geometry" />
        </mxCell>
        <mxCell id="0FDRRa2D_WhrvJ5urZ2m-97" value="" style="line;strokeWidth=1;fillColor=none;align=left;verticalAlign=middle;spacingTop=-1;spacingLeft=3;spacingRight=3;rotatable=0;labelPosition=right;points=[];portConstraint=eastwest;strokeColor=inherit;" parent="0FDRRa2D_WhrvJ5urZ2m-95" vertex="1">
          <mxGeometry y="52" width="220" height="8" as="geometry" />
        </mxCell>
        <mxCell id="0FDRRa2D_WhrvJ5urZ2m-98" value="+ book_seats(show, seats) -&amp;gt; Ticket" style="text;strokeColor=none;fillColor=none;align=left;verticalAlign=top;spacingLeft=4;spacingRight=4;overflow=hidden;rotatable=0;points=[[0,0.5],[1,0.5]];portConstraint=eastwest;whiteSpace=wrap;html=1;" parent="0FDRRa2D_WhrvJ5urZ2m-95" vertex="1">
          <mxGeometry y="60" width="220" height="26" as="geometry" />
        </mxCell>
        <mxCell id="0FDRRa2D_WhrvJ5urZ2m-99" value="CityManager" style="swimlane;fontStyle=1;align=center;verticalAlign=top;childLayout=stackLayout;horizontal=1;startSize=26;horizontalStack=0;resizeParent=1;resizeParentMax=0;resizeLast=0;collapsible=1;marginBottom=0;whiteSpace=wrap;html=1;" parent="1" vertex="1">
          <mxGeometry x="180" y="378" width="220" height="120" as="geometry" />
        </mxCell>
        <mxCell id="0FDRRa2D_WhrvJ5urZ2m-100" value="+ city_id_to_city_map: Dict[str, City]" style="text;strokeColor=none;fillColor=none;align=left;verticalAlign=top;spacingLeft=4;spacingRight=4;overflow=hidden;rotatable=0;points=[[0,0.5],[1,0.5]];portConstraint=eastwest;whiteSpace=wrap;html=1;" parent="0FDRRa2D_WhrvJ5urZ2m-99" vertex="1">
          <mxGeometry y="26" width="220" height="44" as="geometry" />
        </mxCell>
        <mxCell id="0FDRRa2D_WhrvJ5urZ2m-101" value="" style="line;strokeWidth=1;fillColor=none;align=left;verticalAlign=middle;spacingTop=-1;spacingLeft=3;spacingRight=3;rotatable=0;labelPosition=right;points=[];portConstraint=eastwest;strokeColor=inherit;" parent="0FDRRa2D_WhrvJ5urZ2m-99" vertex="1">
          <mxGeometry y="70" width="220" height="8" as="geometry" />
        </mxCell>
        <mxCell id="0FDRRa2D_WhrvJ5urZ2m-102" value="+ add_city&lt;div&gt;+remove_city&lt;/div&gt;" style="text;strokeColor=none;fillColor=none;align=left;verticalAlign=top;spacingLeft=4;spacingRight=4;overflow=hidden;rotatable=0;points=[[0,0.5],[1,0.5]];portConstraint=eastwest;whiteSpace=wrap;html=1;" parent="0FDRRa2D_WhrvJ5urZ2m-99" vertex="1">
          <mxGeometry y="78" width="220" height="42" as="geometry" />
        </mxCell>
        <mxCell id="0FDRRa2D_WhrvJ5urZ2m-103" value="City" style="swimlane;fontStyle=1;align=center;verticalAlign=top;childLayout=stackLayout;horizontal=1;startSize=26;horizontalStack=0;resizeParent=1;resizeParentMax=0;resizeLast=0;collapsible=1;marginBottom=0;whiteSpace=wrap;html=1;" parent="1" vertex="1">
          <mxGeometry x="190" y="550" width="160" height="88" as="geometry" />
        </mxCell>
        <mxCell id="0FDRRa2D_WhrvJ5urZ2m-104" value="+ pincode: int&lt;div&gt;+ name: str&lt;/div&gt;&lt;div&gt;+ id: int&lt;/div&gt;" style="text;strokeColor=none;fillColor=none;align=left;verticalAlign=top;spacingLeft=4;spacingRight=4;overflow=hidden;rotatable=0;points=[[0,0.5],[1,0.5]];portConstraint=eastwest;whiteSpace=wrap;html=1;" parent="0FDRRa2D_WhrvJ5urZ2m-103" vertex="1">
          <mxGeometry y="26" width="160" height="54" as="geometry" />
        </mxCell>
        <mxCell id="0FDRRa2D_WhrvJ5urZ2m-105" value="" style="line;strokeWidth=1;fillColor=none;align=left;verticalAlign=middle;spacingTop=-1;spacingLeft=3;spacingRight=3;rotatable=0;labelPosition=right;points=[];portConstraint=eastwest;strokeColor=inherit;" parent="0FDRRa2D_WhrvJ5urZ2m-103" vertex="1">
          <mxGeometry y="80" width="160" height="8" as="geometry" />
        </mxCell>
        <mxCell id="0FDRRa2D_WhrvJ5urZ2m-107" style="edgeStyle=orthogonalEdgeStyle;rounded=0;orthogonalLoop=1;jettySize=auto;html=1;entryX=0.65;entryY=0.035;entryDx=0;entryDy=0;entryPerimeter=0;" parent="1" source="0FDRRa2D_WhrvJ5urZ2m-99" target="0FDRRa2D_WhrvJ5urZ2m-103" edge="1">
          <mxGeometry relative="1" as="geometry" />
        </mxCell>
        <mxCell id="0FDRRa2D_WhrvJ5urZ2m-109" style="edgeStyle=orthogonalEdgeStyle;rounded=0;orthogonalLoop=1;jettySize=auto;html=1;entryX=1.006;entryY=0.125;entryDx=0;entryDy=0;entryPerimeter=0;" parent="1" source="0FDRRa2D_WhrvJ5urZ2m-88" target="0FDRRa2D_WhrvJ5urZ2m-91" edge="1">
          <mxGeometry relative="1" as="geometry" />
        </mxCell>
        <mxCell id="0FDRRa2D_WhrvJ5urZ2m-111" style="edgeStyle=orthogonalEdgeStyle;rounded=0;orthogonalLoop=1;jettySize=auto;html=1;entryX=1;entryY=0.5;entryDx=0;entryDy=0;" parent="1" source="0FDRRa2D_WhrvJ5urZ2m-49" target="0FDRRa2D_WhrvJ5urZ2m-96" edge="1">
          <mxGeometry relative="1" as="geometry" />
        </mxCell>
        <mxCell id="0FDRRa2D_WhrvJ5urZ2m-112" style="edgeStyle=orthogonalEdgeStyle;rounded=0;orthogonalLoop=1;jettySize=auto;html=1;entryX=1.019;entryY=0.1;entryDx=0;entryDy=0;entryPerimeter=0;" parent="1" source="0FDRRa2D_WhrvJ5urZ2m-49" target="0FDRRa2D_WhrvJ5urZ2m-102" edge="1">
          <mxGeometry relative="1" as="geometry" />
        </mxCell>
        <mxCell id="0FDRRa2D_WhrvJ5urZ2m-115" style="edgeStyle=orthogonalEdgeStyle;rounded=0;orthogonalLoop=1;jettySize=auto;html=1;entryX=0.381;entryY=0.962;entryDx=0;entryDy=0;entryPerimeter=0;" parent="1" source="0FDRRa2D_WhrvJ5urZ2m-49" target="0FDRRa2D_WhrvJ5urZ2m-63" edge="1">
          <mxGeometry relative="1" as="geometry" />
        </mxCell>
        <mxCell id="0FDRRa2D_WhrvJ5urZ2m-117" value="MovieManger" style="swimlane;fontStyle=1;align=center;verticalAlign=top;childLayout=stackLayout;horizontal=1;startSize=26;horizontalStack=0;resizeParent=1;resizeParentMax=0;resizeLast=0;collapsible=1;marginBottom=0;whiteSpace=wrap;html=1;" parent="1" vertex="1">
          <mxGeometry x="480" y="550" width="160" height="110" as="geometry" />
        </mxCell>
        <mxCell id="0FDRRa2D_WhrvJ5urZ2m-118" value="+ movie_id_to_movie_map" style="text;strokeColor=none;fillColor=none;align=left;verticalAlign=top;spacingLeft=4;spacingRight=4;overflow=hidden;rotatable=0;points=[[0,0.5],[1,0.5]];portConstraint=eastwest;whiteSpace=wrap;html=1;" parent="0FDRRa2D_WhrvJ5urZ2m-117" vertex="1">
          <mxGeometry y="26" width="160" height="26" as="geometry" />
        </mxCell>
        <mxCell id="0FDRRa2D_WhrvJ5urZ2m-119" value="" style="line;strokeWidth=1;fillColor=none;align=left;verticalAlign=middle;spacingTop=-1;spacingLeft=3;spacingRight=3;rotatable=0;labelPosition=right;points=[];portConstraint=eastwest;strokeColor=inherit;" parent="0FDRRa2D_WhrvJ5urZ2m-117" vertex="1">
          <mxGeometry y="52" width="160" height="8" as="geometry" />
        </mxCell>
        <mxCell id="0FDRRa2D_WhrvJ5urZ2m-120" value="+ add_movie()&lt;div&gt;+ remove_movie()&lt;/div&gt;" style="text;strokeColor=none;fillColor=none;align=left;verticalAlign=top;spacingLeft=4;spacingRight=4;overflow=hidden;rotatable=0;points=[[0,0.5],[1,0.5]];portConstraint=eastwest;whiteSpace=wrap;html=1;" parent="0FDRRa2D_WhrvJ5urZ2m-117" vertex="1">
          <mxGeometry y="60" width="160" height="50" as="geometry" />
        </mxCell>
        <mxCell id="0FDRRa2D_WhrvJ5urZ2m-121" value="Movie" style="swimlane;fontStyle=1;align=center;verticalAlign=top;childLayout=stackLayout;horizontal=1;startSize=26;horizontalStack=0;resizeParent=1;resizeParentMax=0;resizeLast=0;collapsible=1;marginBottom=0;whiteSpace=wrap;html=1;" parent="1" vertex="1">
          <mxGeometry x="690" y="550" width="160" height="188" as="geometry" />
        </mxCell>
        <mxCell id="0FDRRa2D_WhrvJ5urZ2m-122" value="+ movie_id&lt;div&gt;+ name&lt;/div&gt;&lt;div&gt;+ genre&lt;/div&gt;&lt;div&gt;+ tags&lt;/div&gt;&lt;div&gt;+ length&lt;/div&gt;&lt;div&gt;+ language&lt;/div&gt;&lt;div&gt;+ resolution&lt;/div&gt;" style="text;strokeColor=none;fillColor=none;align=left;verticalAlign=top;spacingLeft=4;spacingRight=4;overflow=hidden;rotatable=0;points=[[0,0.5],[1,0.5]];portConstraint=eastwest;whiteSpace=wrap;html=1;" parent="0FDRRa2D_WhrvJ5urZ2m-121" vertex="1">
          <mxGeometry y="26" width="160" height="154" as="geometry" />
        </mxCell>
        <mxCell id="0FDRRa2D_WhrvJ5urZ2m-123" value="" style="line;strokeWidth=1;fillColor=none;align=left;verticalAlign=middle;spacingTop=-1;spacingLeft=3;spacingRight=3;rotatable=0;labelPosition=right;points=[];portConstraint=eastwest;strokeColor=inherit;" parent="0FDRRa2D_WhrvJ5urZ2m-121" vertex="1">
          <mxGeometry y="180" width="160" height="8" as="geometry" />
        </mxCell>
        <mxCell id="0FDRRa2D_WhrvJ5urZ2m-127" value="Seats" style="swimlane;fontStyle=1;align=center;verticalAlign=top;childLayout=stackLayout;horizontal=1;startSize=26;horizontalStack=0;resizeParent=1;resizeParentMax=0;resizeLast=0;collapsible=1;marginBottom=0;whiteSpace=wrap;html=1;" parent="1" vertex="1">
          <mxGeometry x="1450" y="420" width="160" height="104" as="geometry" />
        </mxCell>
        <mxCell id="0FDRRa2D_WhrvJ5urZ2m-128" value="+ seat_id&lt;div&gt;+ seat_type&lt;/div&gt;" style="text;strokeColor=none;fillColor=none;align=left;verticalAlign=top;spacingLeft=4;spacingRight=4;overflow=hidden;rotatable=0;points=[[0,0.5],[1,0.5]];portConstraint=eastwest;whiteSpace=wrap;html=1;" parent="0FDRRa2D_WhrvJ5urZ2m-127" vertex="1">
          <mxGeometry y="26" width="160" height="44" as="geometry" />
        </mxCell>
        <mxCell id="0FDRRa2D_WhrvJ5urZ2m-129" value="" style="line;strokeWidth=1;fillColor=none;align=left;verticalAlign=middle;spacingTop=-1;spacingLeft=3;spacingRight=3;rotatable=0;labelPosition=right;points=[];portConstraint=eastwest;strokeColor=inherit;" parent="0FDRRa2D_WhrvJ5urZ2m-127" vertex="1">
          <mxGeometry y="70" width="160" height="8" as="geometry" />
        </mxCell>
        <mxCell id="0FDRRa2D_WhrvJ5urZ2m-130" value="+ method(type): type" style="text;strokeColor=none;fillColor=none;align=left;verticalAlign=top;spacingLeft=4;spacingRight=4;overflow=hidden;rotatable=0;points=[[0,0.5],[1,0.5]];portConstraint=eastwest;whiteSpace=wrap;html=1;" parent="0FDRRa2D_WhrvJ5urZ2m-127" vertex="1">
          <mxGeometry y="78" width="160" height="26" as="geometry" />
        </mxCell>
        <mxCell id="0FDRRa2D_WhrvJ5urZ2m-133" style="edgeStyle=orthogonalEdgeStyle;rounded=0;orthogonalLoop=1;jettySize=auto;html=1;entryX=-0.019;entryY=1.154;entryDx=0;entryDy=0;entryPerimeter=0;" parent="1" source="0FDRRa2D_WhrvJ5urZ2m-57" target="0FDRRa2D_WhrvJ5urZ2m-72" edge="1">
          <mxGeometry relative="1" as="geometry" />
        </mxCell>
        <mxCell id="0FDRRa2D_WhrvJ5urZ2m-134" style="edgeStyle=orthogonalEdgeStyle;rounded=0;orthogonalLoop=1;jettySize=auto;html=1;entryX=0.006;entryY=0.846;entryDx=0;entryDy=0;entryPerimeter=0;" parent="1" source="0FDRRa2D_WhrvJ5urZ2m-53" target="0FDRRa2D_WhrvJ5urZ2m-57" edge="1">
          <mxGeometry relative="1" as="geometry" />
        </mxCell>
        <mxCell id="0FDRRa2D_WhrvJ5urZ2m-135" style="edgeStyle=orthogonalEdgeStyle;rounded=0;orthogonalLoop=1;jettySize=auto;html=1;entryX=0;entryY=0.5;entryDx=0;entryDy=0;" parent="1" source="0FDRRa2D_WhrvJ5urZ2m-49" target="0FDRRa2D_WhrvJ5urZ2m-55" edge="1">
          <mxGeometry relative="1" as="geometry" />
        </mxCell>
        <mxCell id="f5nJZXLtFxJmkVuH8lBV-1" style="edgeStyle=orthogonalEdgeStyle;rounded=0;orthogonalLoop=1;jettySize=auto;html=1;entryX=0.413;entryY=0.962;entryDx=0;entryDy=0;entryPerimeter=0;" parent="1" source="0FDRRa2D_WhrvJ5urZ2m-60" target="0FDRRa2D_WhrvJ5urZ2m-86" edge="1">
          <mxGeometry relative="1" as="geometry" />
        </mxCell>
        <mxCell id="f5nJZXLtFxJmkVuH8lBV-2" style="edgeStyle=orthogonalEdgeStyle;rounded=0;orthogonalLoop=1;jettySize=auto;html=1;entryX=0.544;entryY=1.05;entryDx=0;entryDy=0;entryPerimeter=0;" parent="1" source="0FDRRa2D_WhrvJ5urZ2m-48" target="0FDRRa2D_WhrvJ5urZ2m-90" edge="1">
          <mxGeometry relative="1" as="geometry">
            <Array as="points">
              <mxPoint x="680" y="114" />
            </Array>
          </mxGeometry>
        </mxCell>
        <mxCell id="f5nJZXLtFxJmkVuH8lBV-3" style="edgeStyle=orthogonalEdgeStyle;rounded=0;orthogonalLoop=1;jettySize=auto;html=1;entryX=0.006;entryY=0.201;entryDx=0;entryDy=0;entryPerimeter=0;" parent="1" source="0FDRRa2D_WhrvJ5urZ2m-117" target="0FDRRa2D_WhrvJ5urZ2m-122" edge="1">
          <mxGeometry relative="1" as="geometry" />
        </mxCell>
      </root>
    </mxGraphModel>
  </diagram>
</mxfile>
